<svg xmlns="http://www.w3.org/2000/svg" xmlns:xlink="http://www.w3.org/1999/xlink" width="200" zoomAndPan="magnify" viewBox="0 0 150 149.999998" height="200" preserveAspectRatio="xMidYMid meet" version="1.0"><defs><clipPath id="0f0b46f2ad"><path d="M 5.019531 5.019531 L 145.269531 5.019531 L 145.269531 145.269531 L 5.019531 145.269531 Z M 5.019531 5.019531 " clip-rule="nonzero"/></clipPath></defs><g clip-path="url(#0f0b46f2ad)"><path fill="#000000" d="M 6.683594 39.292969 C 8.007812 21.804688 21.804688 8.007812 39.292969 6.683594 C 51.097656 5.789062 64.382812 5.019531 75.144531 5.019531 C 85.90625 5.019531 99.191406 5.789062 110.992188 6.683594 C 128.484375 8.007812 142.28125 21.804688 143.605469 39.292969 C 144.5 51.097656 145.269531 64.382812 145.269531 75.144531 C 145.269531 85.90625 144.5 99.191406 143.605469 110.992188 C 142.28125 128.484375 128.484375 142.28125 110.992188 143.605469 C 99.191406 144.5 85.90625 145.269531 75.144531 145.269531 C 64.382812 145.269531 51.097656 144.5 39.292969 143.605469 C 21.804688 142.28125 8.007812 128.484375 6.683594 110.992188 C 5.789062 99.191406 5.019531 85.90625 5.019531 75.144531 C 5.019531 64.382812 5.789062 51.097656 6.683594 39.292969 Z M 6.683594 39.292969 " fill-opacity="1" fill-rule="nonzero"/></g><path fill="#ffffff" d="M 74.347656 46.867188 C 67.796875 46.867188 62.488281 52.175781 62.488281 58.722656 C 62.488281 65.273438 67.796875 70.582031 74.347656 70.582031 C 80.894531 70.582031 86.203125 65.273438 86.203125 58.722656 C 86.203125 52.175781 80.894531 46.867188 74.347656 46.867188 Z M 57.015625 58.722656 C 57.015625 49.152344 64.773438 41.394531 74.347656 41.394531 C 83.917969 41.394531 91.679688 49.152344 91.679688 58.722656 C 91.679688 68.296875 83.917969 76.054688 74.347656 76.054688 C 64.773438 76.054688 57.015625 68.296875 57.015625 58.722656 Z M 57.015625 58.722656 " fill-opacity="1" fill-rule="evenodd"/><path fill="#ffffff" d="M 48.03125 107.070312 L 81.644531 107.070312 C 83.15625 107.070312 84.378906 108.296875 84.378906 109.808594 C 84.378906 111.320312 83.15625 112.542969 81.644531 112.542969 L 45.15625 112.542969 C 43.644531 112.542969 42.417969 111.320312 42.417969 109.808594 C 42.417969 92.175781 56.714844 77.878906 74.347656 77.878906 C 91.976562 77.878906 106.273438 92.175781 106.273438 109.808594 C 106.273438 111.320312 105.046875 112.542969 103.535156 112.542969 L 96.238281 112.542969 C 94.726562 112.542969 93.5 111.320312 93.5 109.808594 C 93.5 108.296875 94.726562 107.070312 96.238281 107.070312 L 100.660156 107.070312 C 99.289062 93.746094 88.03125 83.355469 74.347656 83.355469 C 60.660156 83.355469 49.402344 93.746094 48.03125 107.070312 Z M 48.03125 107.070312 " fill-opacity="1" fill-rule="evenodd"/><path fill="#ffffff" d="M 44.246094 40.480469 C 44.246094 38.96875 45.46875 37.742188 46.980469 37.742188 L 57.929688 37.742188 C 59.4375 37.742188 60.664062 38.96875 60.664062 40.480469 C 60.664062 41.992188 59.4375 43.21875 57.929688 43.21875 L 49.71875 43.21875 L 49.71875 53.25 C 49.71875 54.761719 48.492188 55.988281 46.980469 55.988281 C 45.46875 55.988281 44.246094 54.761719 44.246094 53.25 Z M 88.03125 40.480469 C 88.03125 38.96875 89.253906 37.742188 90.765625 37.742188 L 101.714844 37.742188 C 103.226562 37.742188 104.449219 38.96875 104.449219 40.480469 L 104.449219 53.25 C 104.449219 54.761719 103.226562 55.988281 101.714844 55.988281 C 100.203125 55.988281 98.976562 54.761719 98.976562 53.25 L 98.976562 43.21875 L 90.765625 43.21875 C 89.253906 43.21875 88.03125 41.992188 88.03125 40.480469 Z M 46.980469 61.460938 C 48.492188 61.460938 49.71875 62.6875 49.71875 64.199219 L 49.71875 74.230469 L 57.929688 74.230469 C 59.4375 74.230469 60.664062 75.457031 60.664062 76.96875 C 60.664062 78.480469 59.4375 79.703125 57.929688 79.703125 L 46.980469 79.703125 C 45.46875 79.703125 44.246094 78.480469 44.246094 76.96875 L 44.246094 64.199219 C 44.246094 62.6875 45.46875 61.460938 46.980469 61.460938 Z M 101.714844 61.460938 C 103.226562 61.460938 104.449219 62.6875 104.449219 64.199219 L 104.449219 76.96875 C 104.449219 78.480469 103.226562 79.703125 101.714844 79.703125 L 90.765625 79.703125 C 89.253906 79.703125 88.03125 78.480469 88.03125 76.96875 C 88.03125 75.457031 89.253906 74.230469 90.765625 74.230469 L 98.976562 74.230469 L 98.976562 64.199219 C 98.976562 62.6875 100.203125 61.460938 101.714844 61.460938 Z M 101.714844 61.460938 " fill-opacity="1" fill-rule="evenodd"/></svg>